<svg width="148" height="329" viewBox="0 0 148 329" fill="none" xmlns="http://www.w3.org/2000/svg">
<path d="M17 56H9.41002L12.71 52.71C12.8983 52.5217 13.0041 52.2663 13.0041 52C13.0041 51.7337 12.8983 51.4783 12.71 51.29C12.5217 51.1017 12.2663 50.9959 12 50.9959C11.7337 50.9959 11.4783 51.1017 11.29 51.29L6.29002 56.29C6.19898 56.3851 6.12761 56.4973 6.08002 56.62C5.98 56.8635 5.98 57.1365 6.08002 57.38C6.12761 57.5028 6.19898 57.6149 6.29002 57.71L11.29 62.71C11.383 62.8037 11.4936 62.8781 11.6154 62.9289C11.7373 62.9797 11.868 63.0058 12 63.0058C12.132 63.0058 12.2627 62.9797 12.3846 62.9289C12.5065 62.8781 12.6171 62.8037 12.71 62.71C12.8037 62.617 12.8781 62.5064 12.9289 62.3846C12.9797 62.2627 13.0058 62.132 13.0058 62C13.0058 61.868 12.9797 61.7373 12.9289 61.6154C12.8781 61.4936 12.8037 61.383 12.71 61.29L9.41002 58H17C17.2652 58 17.5196 57.8946 17.7071 57.7071C17.8947 57.5196 18 57.2652 18 57C18 56.7348 17.8947 56.4804 17.7071 56.2929C17.5196 56.1054 17.2652 56 17 56Z" fill="black"/>
<path d="M99 9.17C98.8126 8.98375 98.5592 8.87921 98.295 8.87921C98.0308 8.87921 97.7774 8.98375 97.59 9.17L94 12.71L90.46 9.17C90.2726 8.98375 90.0192 8.87921 89.755 8.87921C89.4908 8.87921 89.2374 8.98375 89.05 9.17C88.9563 9.26297 88.8819 9.37357 88.8311 9.49543C88.7803 9.61729 88.7542 9.74799 88.7542 9.88C88.7542 10.012 88.7803 10.1427 88.8311 10.2646C88.8819 10.3864 88.9563 10.497 89.05 10.59L93.29 14.83C93.383 14.9237 93.4936 14.9981 93.6154 15.0489C93.7373 15.0997 93.868 15.1258 94 15.1258C94.132 15.1258 94.2627 15.0997 94.3846 15.0489C94.5064 14.9981 94.617 14.9237 94.71 14.83L99 10.59C99.0937 10.497 99.1681 10.3864 99.2189 10.2646C99.2697 10.1427 99.2958 10.012 99.2958 9.88C99.2958 9.74799 99.2697 9.61729 99.2189 9.49543C99.1681 9.37357 99.0937 9.26297 99 9.17Z" fill="black"/>
<path d="M55.83 11.29L51.59 7.05001C51.497 6.95628 51.3864 6.88189 51.2646 6.83112C51.1427 6.78035 51.012 6.75421 50.88 6.75421C50.748 6.75421 50.6173 6.78035 50.4954 6.83112C50.3736 6.88189 50.263 6.95628 50.17 7.05001C49.9838 7.23737 49.8792 7.49082 49.8792 7.75501C49.8792 8.0192 49.9838 8.27265 50.17 8.46001L53.71 12L50.17 15.54C49.9838 15.7274 49.8792 15.9808 49.8792 16.245C49.8792 16.5092 49.9838 16.7626 50.17 16.95C50.2634 17.0427 50.3743 17.116 50.4961 17.1658C50.6179 17.2155 50.7484 17.2408 50.88 17.24C51.0116 17.2408 51.1421 17.2155 51.2639 17.1658C51.3857 17.116 51.4966 17.0427 51.59 16.95L55.83 12.71C55.9237 12.617 55.9981 12.5064 56.0489 12.3846C56.0997 12.2627 56.1258 12.132 56.1258 12C56.1258 11.868 56.0997 11.7373 56.0489 11.6154C55.9981 11.4936 55.9237 11.383 55.83 11.29Z" fill="black"/>
<path d="M141 13.41L136.71 9.17C136.617 9.07628 136.506 9.00188 136.385 8.95111C136.263 8.90035 136.132 8.87421 136 8.87421C135.868 8.87421 135.737 8.90035 135.615 8.95111C135.494 9.00188 135.383 9.07628 135.29 9.17L131.05 13.41C130.956 13.503 130.882 13.6136 130.831 13.7354C130.78 13.8573 130.754 13.988 130.754 14.12C130.754 14.252 130.78 14.3827 130.831 14.5046C130.882 14.6264 130.956 14.737 131.05 14.83C131.237 15.0163 131.491 15.1208 131.755 15.1208C132.019 15.1208 132.273 15.0163 132.46 14.83L136 11.29L139.54 14.83C139.726 15.0147 139.978 15.1189 140.24 15.12C140.372 15.1208 140.502 15.0955 140.624 15.0458C140.746 14.996 140.857 14.9227 140.95 14.83C141.047 14.7404 141.125 14.6324 141.181 14.5123C141.236 14.3923 141.266 14.2625 141.271 14.1304C141.276 13.9984 141.254 13.8667 141.208 13.7431C141.161 13.6194 141.091 13.5062 141 13.41Z" fill="black"/>
<path d="M100 58.18V55C99.9986 53.5831 99.4958 52.2125 98.5806 51.1308C97.6655 50.0491 96.3971 49.3261 95 49.09V48C95 47.7348 94.8946 47.4804 94.7071 47.2929C94.5196 47.1054 94.2652 47 94 47C93.7348 47 93.4804 47.1054 93.2929 47.2929C93.1054 47.4804 93 47.7348 93 48V49.09C91.6029 49.3261 90.3345 50.0491 89.4194 51.1308C88.5042 52.2125 88.0014 53.5831 88 55V58.18C87.4165 58.3863 86.911 58.7681 86.5529 59.2729C86.1949 59.7778 86.0017 60.3811 86 61V63C86 63.2652 86.1054 63.5196 86.2929 63.7071C86.4804 63.8946 86.7348 64 87 64H90.14C90.3703 64.8474 90.873 65.5954 91.5706 66.1287C92.2682 66.6621 93.1219 66.951 94 66.951C94.8781 66.951 95.7318 66.6621 96.4294 66.1287C97.127 65.5954 97.6297 64.8474 97.86 64H101C101.265 64 101.52 63.8946 101.707 63.7071C101.895 63.5196 102 63.2652 102 63V61C101.998 60.3811 101.805 59.7778 101.447 59.2729C101.089 58.7681 100.584 58.3863 100 58.18ZM90 55C90 53.9391 90.4214 52.9217 91.1716 52.1716C91.9217 51.4214 92.9391 51 94 51C95.0609 51 96.0783 51.4214 96.8284 52.1716C97.5786 52.9217 98 53.9391 98 55V58H90V55ZM94 65C93.651 64.9979 93.3086 64.9045 93.0068 64.7291C92.7051 64.5536 92.4545 64.3023 92.28 64H95.72C95.5455 64.3023 95.2949 64.5536 94.9932 64.7291C94.6914 64.9045 94.349 64.9979 94 65ZM100 62H88V61C88 60.7348 88.1054 60.4804 88.2929 60.2929C88.4804 60.1054 88.7348 60 89 60H99C99.2652 60 99.5196 60.1054 99.7071 60.2929C99.8946 60.4804 100 60.7348 100 61V62Z" fill="black"/>
<path d="M134.07 51.12C134.373 51.0382 134.686 50.9979 135 51C136.061 51 137.078 51.4214 137.828 52.1716C138.579 52.9217 139 53.9391 139 55V56.34C139 56.6052 139.105 56.8596 139.293 57.0471C139.48 57.2346 139.735 57.34 140 57.34C140.265 57.34 140.52 57.2346 140.707 57.0471C140.895 56.8596 141 56.6052 141 56.34V55C140.999 53.5831 140.496 52.2125 139.581 51.1308C138.665 50.0491 137.397 49.3261 136 49.09V48C136 47.7348 135.895 47.4804 135.707 47.2929C135.52 47.1054 135.265 47 135 47C134.735 47 134.48 47.1054 134.293 47.2929C134.105 47.4804 134 47.7348 134 48V49.1L133.55 49.18C133.293 49.249 133.073 49.4173 132.94 49.648C132.807 49.8786 132.771 50.1527 132.84 50.41C132.909 50.6673 133.077 50.8866 133.308 51.0197C133.539 51.1529 133.813 51.189 134.07 51.12ZM144.71 65.29L126.71 47.29C126.617 47.1968 126.506 47.1228 126.384 47.0723C126.262 47.0219 126.132 46.9959 126 46.9959C125.868 46.9959 125.738 47.0219 125.616 47.0723C125.494 47.1228 125.383 47.1968 125.29 47.29C125.102 47.4783 124.996 47.7337 124.996 48C124.996 48.2663 125.102 48.5217 125.29 48.71L129.41 52.82C129.139 53.5149 129 54.2542 129 55V58.18C128.416 58.3863 127.911 58.7681 127.553 59.2729C127.195 59.7778 127.002 60.3811 127 61V63C127 63.2652 127.105 63.5196 127.293 63.7071C127.48 63.8946 127.735 64 128 64H131.14C131.37 64.8474 131.873 65.5954 132.571 66.1287C133.268 66.6621 134.122 66.951 135 66.951C135.878 66.951 136.732 66.6621 137.429 66.1287C138.127 65.5954 138.63 64.8474 138.86 64H140.59L143.29 66.71C143.383 66.8037 143.494 66.8781 143.615 66.9289C143.737 66.9797 143.868 67.0058 144 67.0058C144.132 67.0058 144.263 66.9797 144.385 66.9289C144.506 66.8781 144.617 66.8037 144.71 66.71C144.804 66.617 144.878 66.5064 144.929 66.3846C144.98 66.2627 145.006 66.132 145.006 66C145.006 65.868 144.98 65.7373 144.929 65.6154C144.878 65.4936 144.804 65.383 144.71 65.29ZM131 55C130.985 54.817 130.985 54.633 131 54.45L134.59 58H131V55ZM135 65C134.651 64.9979 134.309 64.9045 134.007 64.7291C133.705 64.5536 133.455 64.3023 133.28 64H136.72C136.545 64.3023 136.295 64.5536 135.993 64.7291C135.691 64.9045 135.349 64.9979 135 65ZM129 62V61C129 60.7348 129.105 60.4804 129.293 60.2929C129.48 60.1054 129.735 60 130 60H136.59L138.59 62H129Z" fill="black"/>
<path d="M18.7099 103.21C18.617 103.116 18.5064 103.042 18.3845 102.991C18.2627 102.94 18.132 102.914 17.9999 102.914C17.8679 102.914 17.7372 102.94 17.6154 102.991C17.4935 103.042 17.3829 103.116 17.29 103.21L9.83995 110.67L6.70995 107.53C6.61343 107.437 6.49949 107.363 6.37463 107.314C6.24978 107.265 6.11645 107.241 5.98227 107.243C5.84809 107.246 5.71568 107.274 5.5926 107.328C5.46953 107.381 5.35819 107.458 5.26495 107.555C5.17171 107.652 5.0984 107.765 5.04919 107.89C4.99999 108.015 4.97586 108.148 4.97818 108.283C4.9805 108.417 5.00923 108.549 5.06272 108.672C5.11622 108.795 5.19343 108.907 5.28995 109L9.12995 112.84C9.22291 112.934 9.33351 113.008 9.45537 113.059C9.57723 113.11 9.70794 113.136 9.83995 113.136C9.97196 113.136 10.1027 113.11 10.2245 113.059C10.3464 113.008 10.457 112.934 10.55 112.84L18.7099 104.68C18.8115 104.586 18.8925 104.473 18.9479 104.346C19.0033 104.22 19.0319 104.083 19.0319 103.945C19.0319 103.807 19.0033 103.67 18.9479 103.544C18.8925 103.417 18.8115 103.304 18.7099 103.21Z" fill="black"/>
<path d="M12 153C11.7348 153 11.4804 153.105 11.2929 153.293C11.1054 153.48 11 153.735 11 154V158.384L8.57 159.607C8.44856 159.663 8.33969 159.744 8.24986 159.843C8.16002 159.942 8.09105 160.059 8.04703 160.185C8.00301 160.312 7.98485 160.446 7.99361 160.579C8.00237 160.713 8.03789 160.843 8.09804 160.963C8.1582 161.083 8.24177 161.189 8.34381 161.276C8.44584 161.363 8.56426 161.428 8.69203 161.468C8.8198 161.508 8.95433 161.522 9.08762 161.509C9.22092 161.496 9.35027 161.457 9.468 161.393L12.449 159.893C12.6146 159.81 12.7539 159.682 12.8512 159.525C12.9485 159.367 13 159.185 13 159V154C13 153.735 12.8946 153.48 12.7071 153.293C12.5196 153.105 12.2652 153 12 153ZM12 149C10.0222 149 8.08879 149.586 6.4443 150.685C4.79981 151.784 3.51809 153.346 2.76121 155.173C2.00433 157 1.8063 159.011 2.19215 160.951C2.578 162.891 3.53041 164.673 4.92894 166.071C6.32746 167.47 8.10929 168.422 10.0491 168.808C11.9889 169.194 13.9996 168.996 15.8268 168.239C17.6541 167.482 19.2159 166.2 20.3147 164.556C21.4135 162.911 22 160.978 22 159C21.9971 156.349 20.9426 153.807 19.0679 151.932C17.1931 150.057 14.6513 149.003 12 149ZM12 167C10.4178 167 8.87104 166.531 7.55544 165.652C6.23985 164.773 5.21447 163.523 4.60897 162.061C4.00347 160.6 3.84504 158.991 4.15372 157.439C4.4624 155.887 5.22433 154.462 6.34315 153.343C7.46197 152.224 8.88743 151.462 10.4393 151.154C11.9911 150.845 13.5997 151.003 15.0615 151.609C16.5233 152.214 17.7727 153.24 18.6518 154.555C19.5308 155.871 20 157.418 20 159C19.9974 161.121 19.1537 163.154 17.6539 164.654C16.1542 166.154 14.1209 166.997 12 167Z" fill="black"/>
<path d="M56 161H50C49.7348 161 49.4804 161.105 49.2929 161.293C49.1054 161.48 49 161.735 49 162C49 162.265 49.1054 162.52 49.2929 162.707C49.4804 162.895 49.7348 163 50 163H56C56.2652 163 56.5196 162.895 56.7071 162.707C56.8946 162.52 57 162.265 57 162C57 161.735 56.8946 161.48 56.7071 161.293C56.5196 161.105 56.2652 161 56 161ZM56 157H52C51.7348 157 51.4804 157.105 51.2929 157.293C51.1054 157.48 51 157.735 51 158C51 158.265 51.1054 158.52 51.2929 158.707C51.4804 158.895 51.7348 159 52 159H56C56.2652 159 56.5196 158.895 56.7071 158.707C56.8946 158.52 57 158.265 57 158C57 157.735 56.8946 157.48 56.7071 157.293C56.5196 157.105 56.2652 157 56 157ZM58 151H56.82C56.6137 150.416 56.2319 149.911 55.7271 149.553C55.2222 149.195 54.6189 149.002 54 149H52C51.3811 149.002 50.7778 149.195 50.2729 149.553C49.7681 149.911 49.3863 150.416 49.18 151H48C47.2044 151 46.4413 151.316 45.8787 151.879C45.3161 152.441 45 153.204 45 154V166C45 166.796 45.3161 167.559 45.8787 168.121C46.4413 168.684 47.2044 169 48 169H58C58.7956 169 59.5587 168.684 60.1213 168.121C60.6839 167.559 61 166.796 61 166V154C61 153.204 60.6839 152.441 60.1213 151.879C59.5587 151.316 58.7956 151 58 151ZM51 152C51 151.735 51.1054 151.48 51.2929 151.293C51.4804 151.105 51.7348 151 52 151H54C54.2652 151 54.5196 151.105 54.7071 151.293C54.8946 151.48 55 151.735 55 152V153H51V152ZM59 166C59 166.265 58.8946 166.52 58.7071 166.707C58.5196 166.895 58.2652 167 58 167H48C47.7348 167 47.4804 166.895 47.2929 166.707C47.1054 166.52 47 166.265 47 166V154C47 153.735 47.1054 153.48 47.2929 153.293C47.4804 153.105 47.7348 153 48 153H49V154C49 154.265 49.1054 154.52 49.2929 154.707C49.4804 154.895 49.7348 155 50 155H56C56.2652 155 56.5196 154.895 56.7071 154.707C56.8946 154.52 57 154.265 57 154V153H58C58.2652 153 58.5196 153.105 58.7071 153.293C58.8946 153.48 59 153.735 59 154V166Z" fill="black"/>
<path d="M93 156C92.8022 156 92.6089 156.059 92.4444 156.169C92.28 156.278 92.1518 156.435 92.0761 156.617C92.0004 156.8 91.9806 157.001 92.0192 157.195C92.0578 157.389 92.153 157.567 92.2929 157.707C92.4327 157.847 92.6109 157.942 92.8049 157.981C92.9989 158.019 93.2 158 93.3827 157.924C93.5654 157.848 93.7216 157.72 93.8315 157.556C93.9414 157.391 94 157.198 94 157C94 156.735 93.8946 156.48 93.7071 156.293C93.5196 156.105 93.2652 156 93 156ZM100 149H86C85.2044 149 84.4413 149.316 83.8787 149.879C83.3161 150.441 83 151.204 83 152V162C83 162.796 83.3161 163.559 83.8787 164.121C84.4413 164.684 85.2044 165 86 165H97.59L101.29 168.71C101.383 168.803 101.494 168.876 101.616 168.926C101.738 168.976 101.868 169.001 102 169C102.131 169.003 102.261 168.976 102.38 168.92C102.563 168.845 102.719 168.718 102.829 168.554C102.94 168.39 102.999 168.197 103 168V152C103 151.204 102.684 150.441 102.121 149.879C101.559 149.316 100.796 149 100 149ZM101 165.59L98.71 163.29C98.6166 163.197 98.5057 163.124 98.3839 163.074C98.2621 163.024 98.1316 162.999 98 163H86C85.7348 163 85.4804 162.895 85.2929 162.707C85.1054 162.52 85 162.265 85 162V152C85 151.735 85.1054 151.48 85.2929 151.293C85.4804 151.105 85.7348 151 86 151H100C100.265 151 100.52 151.105 100.707 151.293C100.895 151.48 101 151.735 101 152V165.59ZM89 156C88.8022 156 88.6089 156.059 88.4444 156.169C88.28 156.278 88.1518 156.435 88.0761 156.617C88.0004 156.8 87.9806 157.001 88.0192 157.195C88.0578 157.389 88.153 157.567 88.2929 157.707C88.4327 157.847 88.6109 157.942 88.8049 157.981C88.9989 158.019 89.2 158 89.3827 157.924C89.5654 157.848 89.7216 157.72 89.8315 157.556C89.9414 157.391 90 157.198 90 157C90 156.735 89.8946 156.48 89.7071 156.293C89.5196 156.105 89.2652 156 89 156ZM97 156C96.8022 156 96.6089 156.059 96.4444 156.169C96.28 156.278 96.1518 156.435 96.0761 156.617C96.0004 156.8 95.9806 157.001 96.0192 157.195C96.0578 157.389 96.153 157.567 96.2929 157.707C96.4327 157.847 96.6109 157.942 96.8049 157.981C96.9989 158.019 97.2 158 97.3827 157.924C97.5654 157.848 97.7216 157.72 97.8315 157.556C97.9414 157.391 98 157.198 98 157C98 156.735 97.8946 156.48 97.7071 156.293C97.5196 156.105 97.2652 156 97 156Z" fill="black"/>
<path d="M12 215C11.6044 215 11.2178 215.117 10.8889 215.337C10.56 215.557 10.3036 215.869 10.1522 216.235C10.0009 216.6 9.96126 217.002 10.0384 217.39C10.1156 217.778 10.3061 218.135 10.5858 218.414C10.8655 218.694 11.2219 218.884 11.6098 218.962C11.9978 219.039 12.3999 218.999 12.7654 218.848C13.1308 218.696 13.4432 218.44 13.6629 218.111C13.8827 217.782 14 217.396 14 217C14 216.47 13.7893 215.961 13.4142 215.586C13.0391 215.211 12.5304 215 12 215ZM5 215C4.60444 215 4.21776 215.117 3.88886 215.337C3.55996 215.557 3.30362 215.869 3.15224 216.235C3.00087 216.6 2.96126 217.002 3.03843 217.39C3.1156 217.778 3.30608 218.135 3.58579 218.414C3.86549 218.694 4.22186 218.884 4.60982 218.962C4.99778 219.039 5.39992 218.999 5.76537 218.848C6.13082 218.696 6.44318 218.44 6.66294 218.111C6.8827 217.782 7 217.396 7 217C7 216.47 6.78929 215.961 6.41421 215.586C6.03914 215.211 5.53043 215 5 215ZM19 215C18.6044 215 18.2178 215.117 17.8889 215.337C17.56 215.557 17.3036 215.869 17.1522 216.235C17.0009 216.6 16.9613 217.002 17.0384 217.39C17.1156 217.778 17.3061 218.135 17.5858 218.414C17.8655 218.694 18.2219 218.884 18.6098 218.962C18.9978 219.039 19.3999 218.999 19.7654 218.848C20.1308 218.696 20.4432 218.44 20.6629 218.111C20.8827 217.782 21 217.396 21 217C21 216.47 20.7893 215.961 20.4142 215.586C20.0391 215.211 19.5304 215 19 215Z" fill="black"/>
<path d="M53 212C53.3956 212 53.7822 211.883 54.1111 211.663C54.44 211.443 54.6964 211.131 54.8478 210.765C54.9991 210.4 55.0387 209.998 54.9616 209.61C54.8844 209.222 54.6939 208.865 54.4142 208.586C54.1345 208.306 53.7781 208.116 53.3902 208.038C53.0022 207.961 52.6001 208.001 52.2346 208.152C51.8692 208.304 51.5568 208.56 51.3371 208.889C51.1173 209.218 51 209.604 51 210C51 210.53 51.2107 211.039 51.5858 211.414C51.9609 211.789 52.4696 212 53 212ZM53 222C52.6044 222 52.2178 222.117 51.8889 222.337C51.56 222.557 51.3036 222.869 51.1522 223.235C51.0009 223.6 50.9613 224.002 51.0384 224.39C51.1156 224.778 51.3061 225.135 51.5858 225.414C51.8655 225.694 52.2219 225.884 52.6098 225.962C52.9978 226.039 53.3999 225.999 53.7654 225.848C54.1308 225.696 54.4432 225.44 54.6629 225.111C54.8827 224.782 55 224.396 55 224C55 223.47 54.7893 222.961 54.4142 222.586C54.0391 222.211 53.5304 222 53 222ZM53 215C52.6044 215 52.2178 215.117 51.8889 215.337C51.56 215.557 51.3036 215.869 51.1522 216.235C51.0009 216.6 50.9613 217.002 51.0384 217.39C51.1156 217.778 51.3061 218.135 51.5858 218.414C51.8655 218.694 52.2219 218.884 52.6098 218.962C52.9978 219.039 53.3999 218.999 53.7654 218.848C54.1308 218.696 54.4432 218.44 54.6629 218.111C54.8827 217.782 55 217.396 55 217C55 216.47 54.7893 215.961 54.4142 215.586C54.0391 215.211 53.5304 215 53 215Z" fill="black"/>
<path d="M97 216C97.1978 216 97.3911 215.941 97.5556 215.831C97.72 215.722 97.8482 215.565 97.9239 215.383C97.9996 215.2 98.0194 214.999 97.9808 214.805C97.9422 214.611 97.847 214.433 97.7071 214.293C97.5673 214.153 97.3891 214.058 97.1951 214.019C97.0011 213.981 96.8 214 96.6173 214.076C96.4346 214.152 96.2784 214.28 96.1685 214.444C96.0587 214.609 96 214.802 96 215C96 215.265 96.1054 215.52 96.2929 215.707C96.4804 215.895 96.7348 216 97 216ZM91 216C91.1978 216 91.3911 215.941 91.5556 215.831C91.72 215.722 91.8482 215.565 91.9239 215.383C91.9996 215.2 92.0194 214.999 91.9808 214.805C91.9422 214.611 91.847 214.433 91.7071 214.293C91.5673 214.153 91.3891 214.058 91.1951 214.019C91.0011 213.981 90.8 214 90.6173 214.076C90.4346 214.152 90.2784 214.28 90.1685 214.444C90.0587 214.609 90 214.802 90 215C90 215.265 90.1054 215.52 90.2929 215.707C90.4804 215.895 90.7348 216 91 216ZM94 207C92.0222 207 90.0888 207.586 88.4443 208.685C86.7998 209.784 85.5181 211.346 84.7612 213.173C84.0043 215 83.8063 217.011 84.1922 218.951C84.578 220.891 85.5304 222.673 86.9289 224.071C88.3275 225.47 90.1093 226.422 92.0491 226.808C93.9889 227.194 95.9996 226.996 97.8268 226.239C99.6541 225.482 101.216 224.2 102.315 222.556C103.414 220.911 104 218.978 104 217C104 215.687 103.741 214.386 103.239 213.173C102.736 211.96 102 210.858 101.071 209.929C100.142 209 99.0401 208.264 97.8268 207.761C96.6136 207.259 95.3132 207 94 207ZM94 225C92.4178 225 90.871 224.531 89.5554 223.652C88.2398 222.773 87.2145 221.523 86.609 220.061C86.0035 218.6 85.845 216.991 86.1537 215.439C86.4624 213.887 87.2243 212.462 88.3432 211.343C89.462 210.224 90.8874 209.462 92.4393 209.154C93.9911 208.845 95.5997 209.003 97.0615 209.609C98.5233 210.214 99.7727 211.24 100.652 212.555C101.531 213.871 102 215.418 102 217C102 219.122 101.157 221.157 99.6569 222.657C98.1566 224.157 96.1217 225 94 225ZM98.28 217.88C98.115 217.674 97.8752 217.541 97.613 217.512C97.3507 217.482 97.0872 217.556 96.88 217.72C96.471 218.054 96.1658 218.498 96 219H92.35C92.1878 218.488 91.8825 218.034 91.47 217.69C91.2607 217.543 91.0031 217.482 90.7502 217.519C90.4973 217.556 90.2682 217.689 90.11 217.89C89.9473 218.094 89.8709 218.354 89.897 218.614C89.9232 218.873 90.0499 219.112 90.25 219.28C90.4251 219.478 90.515 219.736 90.5 220C90.506 220.262 90.4173 220.518 90.25 220.72C90.1429 220.8 90.0531 220.902 89.9858 221.017C89.9186 221.133 89.8753 221.261 89.8585 221.394C89.8417 221.527 89.8518 221.662 89.8882 221.791C89.9246 221.92 89.9865 222.04 90.0703 222.145C90.154 222.249 90.2579 222.336 90.3758 222.4C90.4937 222.463 90.6232 222.502 90.7565 222.515C90.8899 222.528 91.0244 222.513 91.1521 222.473C91.2798 222.433 91.3981 222.367 91.5 222.28C91.89 221.937 92.1802 221.494 92.34 221H96C96.1602 221.515 96.47 221.971 96.89 222.31C97.0572 222.427 97.2561 222.49 97.46 222.49C97.6102 222.489 97.7583 222.455 97.8934 222.389C98.0284 222.323 98.1469 222.228 98.24 222.11C98.4027 221.906 98.4791 221.646 98.453 221.386C98.4268 221.127 98.3001 220.888 98.1 220.72C97.9249 220.522 97.835 220.264 97.85 220C97.844 219.738 97.9327 219.482 98.1 219.28C98.3091 219.118 98.4454 218.88 98.4792 218.617C98.5129 218.355 98.4413 218.09 98.28 217.88Z" fill="black"/>
<path d="M143 155L137 149.74C136.45 149.248 135.738 148.976 135 148.976C134.262 148.976 133.55 149.248 133 149.74L127 155C126.682 155.284 126.429 155.633 126.256 156.022C126.084 156.412 125.997 156.834 126 157.26V166C126 166.796 126.316 167.559 126.879 168.121C127.441 168.684 128.204 169 129 169H141C141.796 169 142.559 168.684 143.121 168.121C143.684 167.559 144 166.796 144 166V157.25C144.002 156.826 143.914 156.406 143.741 156.018C143.569 155.63 143.316 155.283 143 155ZM137 167H133V162C133 161.735 133.105 161.48 133.293 161.293C133.48 161.105 133.735 161 134 161H136C136.265 161 136.52 161.105 136.707 161.293C136.895 161.48 137 161.735 137 162V167ZM142 166C142 166.265 141.895 166.52 141.707 166.707C141.52 166.895 141.265 167 141 167H139V162C139 161.204 138.684 160.441 138.121 159.879C137.559 159.316 136.796 159 136 159H134C133.204 159 132.441 159.316 131.879 159.879C131.316 160.441 131 161.204 131 162V167H129C128.735 167 128.48 166.895 128.293 166.707C128.105 166.52 128 166.265 128 166V157.25C128 157.108 128.031 156.968 128.089 156.838C128.148 156.709 128.233 156.594 128.34 156.5L134.34 151.25C134.522 151.09 134.757 151.001 135 151.001C135.243 151.001 135.477 151.09 135.66 151.25L141.66 156.5C141.767 156.594 141.852 156.709 141.911 156.838C141.969 156.968 142 157.108 142 157.25V166Z" fill="black"/>
<path d="M135 219C134.753 219 134.511 219.073 134.306 219.211C134.1 219.348 133.94 219.543 133.845 219.772C133.751 220 133.726 220.251 133.774 220.494C133.822 220.736 133.941 220.959 134.116 221.134C134.291 221.309 134.514 221.428 134.756 221.476C134.999 221.524 135.25 221.499 135.478 221.405C135.707 221.31 135.902 221.15 136.039 220.944C136.177 220.739 136.25 220.497 136.25 220.25C136.25 219.918 136.118 219.601 135.884 219.366C135.649 219.132 135.332 219 135 219ZM135 217.5C135.265 217.5 135.52 217.395 135.707 217.207C135.895 217.02 136 216.765 136 216.5V213.5C136 213.235 135.895 212.98 135.707 212.793C135.52 212.605 135.265 212.5 135 212.5C134.735 212.5 134.48 212.605 134.293 212.793C134.105 212.98 134 213.235 134 213.5V216.5C134 216.765 134.105 217.02 134.293 217.207C134.48 217.395 134.735 217.5 135 217.5ZM135 207C133.022 207 131.089 207.586 129.444 208.685C127.8 209.784 126.518 211.346 125.761 213.173C125.004 215 124.806 217.011 125.192 218.951C125.578 220.891 126.53 222.673 127.929 224.071C129.327 225.47 131.109 226.422 133.049 226.808C134.989 227.194 137 226.996 138.827 226.239C140.654 225.482 142.216 224.2 143.315 222.556C144.414 220.911 145 218.978 145 217C144.997 214.349 143.943 211.807 142.068 209.932C140.193 208.057 137.651 207.003 135 207ZM135 225C133.418 225 131.871 224.531 130.555 223.652C129.24 222.773 128.214 221.523 127.609 220.061C127.003 218.6 126.845 216.991 127.154 215.439C127.462 213.887 128.224 212.462 129.343 211.343C130.462 210.224 131.887 209.462 133.439 209.154C134.991 208.845 136.6 209.003 138.061 209.609C139.523 210.214 140.773 211.24 141.652 212.555C142.531 213.871 143 215.418 143 217C142.997 219.121 142.154 221.154 140.654 222.654C139.154 224.154 137.121 224.997 135 225Z" fill="black"/>
<path d="M20.16 260C19.1 258.937 17.6948 258.289 16.1984 258.171C14.7019 258.054 13.2128 258.475 12 259.36C10.7277 258.414 9.14402 257.984 7.56795 258.159C5.99188 258.334 4.54047 259.099 3.506 260.301C2.47154 261.502 1.93085 263.052 1.99283 264.636C2.05481 266.22 2.71485 267.723 3.84003 268.84L10.05 275.06C10.57 275.572 11.2704 275.859 12 275.859C12.7296 275.859 13.43 275.572 13.95 275.06L20.16 268.84C21.3276 267.665 21.983 266.076 21.983 264.42C21.983 262.764 21.3276 261.175 20.16 260ZM18.75 267.46L12.54 273.67C12.4694 273.741 12.3853 273.798 12.2926 273.837C12.1999 273.875 12.1005 273.895 12 273.895C11.8996 273.895 11.8002 273.875 11.7075 273.837C11.6148 273.798 11.5307 273.741 11.46 273.67L5.25003 267.43C4.46579 266.628 4.02664 265.551 4.02664 264.43C4.02664 263.309 4.46579 262.232 5.25003 261.43C6.04919 260.641 7.127 260.199 8.25003 260.199C9.37306 260.199 10.4509 260.641 11.25 261.43C11.343 261.524 11.4536 261.598 11.5755 261.649C11.6973 261.7 11.828 261.726 11.96 261.726C12.092 261.726 12.2227 261.7 12.3446 261.649C12.4665 261.598 12.5771 261.524 12.67 261.43C13.4692 260.641 14.547 260.199 15.67 260.199C16.7931 260.199 17.8709 260.641 18.67 261.43C19.4651 262.221 19.9186 263.292 19.9336 264.414C19.9485 265.535 19.5237 266.618 18.75 267.43V267.46Z" fill="black"/>
<path d="M62.71 275.29L59 271.61C60.4401 269.814 61.1375 267.535 60.9488 265.241C60.7601 262.947 59.6997 260.813 57.9855 259.277C56.2714 257.741 54.0338 256.92 51.7329 256.982C49.4321 257.045 47.2427 257.988 45.6152 259.615C43.9876 261.243 43.0455 263.432 42.9825 265.733C42.9195 268.034 43.7405 270.271 45.2767 271.986C46.8128 273.7 48.9473 274.76 51.2413 274.949C53.5353 275.138 55.8144 274.44 57.61 273L61.29 276.68C61.383 276.774 61.4936 276.848 61.6154 276.899C61.7373 276.95 61.868 276.976 62 276.976C62.132 276.976 62.2627 276.95 62.3846 276.899C62.5065 276.848 62.6171 276.774 62.71 276.68C62.8903 276.494 62.991 276.244 62.991 275.985C62.991 275.726 62.8903 275.476 62.71 275.29ZM52 273C50.6156 273 49.2622 272.589 48.111 271.82C46.9599 271.051 46.0627 269.958 45.5329 268.679C45.0031 267.4 44.8644 265.992 45.1345 264.634C45.4046 263.277 46.0713 262.029 47.0503 261.05C48.0292 260.071 49.2765 259.405 50.6344 259.135C51.9923 258.864 53.3997 259.003 54.6788 259.533C55.9579 260.063 57.0511 260.96 57.8203 262.111C58.5895 263.262 59 264.616 59 266C59 267.857 58.2625 269.637 56.9498 270.95C55.637 272.263 53.8565 273 52 273Z" fill="black"/>
<path d="M97.71 267.71C98.6904 266.939 99.406 265.881 99.7572 264.684C100.108 263.487 100.078 262.21 99.6698 261.031C99.2617 259.853 98.4963 258.83 97.4801 258.107C96.4639 257.383 95.2474 256.995 94 256.995C92.7525 256.995 91.5361 257.383 90.5199 258.107C89.5037 258.83 88.7383 259.853 88.3302 261.031C87.9221 262.21 87.8915 263.487 88.2428 264.684C88.594 265.881 89.3096 266.939 90.29 267.71C88.6101 268.383 87.1443 269.499 86.0489 270.94C84.9535 272.38 84.2696 274.091 84.07 275.89C84.0556 276.021 84.0671 276.154 84.104 276.281C84.1409 276.408 84.2025 276.526 84.2851 276.629C84.452 276.837 84.6948 276.971 84.96 277C85.2252 277.029 85.4912 276.952 85.6993 276.785C85.9075 276.618 86.0408 276.375 86.07 276.11C86.2896 274.155 87.2217 272.35 88.6882 271.039C90.1547 269.728 92.0529 269.003 94.02 269.003C95.9871 269.003 97.8852 269.728 99.3518 271.039C100.818 272.35 101.75 274.155 101.97 276.11C101.997 276.356 102.114 276.583 102.299 276.747C102.484 276.911 102.723 277.002 102.97 277H103.08C103.342 276.97 103.582 276.837 103.747 276.631C103.911 276.425 103.988 276.162 103.96 275.9C103.759 274.096 103.072 272.381 101.971 270.938C100.87 269.495 99.3969 268.379 97.71 267.71ZM94 267C93.2089 267 92.4355 266.765 91.7777 266.326C91.1199 265.886 90.6072 265.262 90.3045 264.531C90.0017 263.8 89.9225 262.996 90.0769 262.22C90.2312 261.444 90.6122 260.731 91.1716 260.172C91.731 259.612 92.4437 259.231 93.2196 259.077C93.9956 258.923 94.7998 259.002 95.5307 259.304C96.2616 259.607 96.8863 260.12 97.3259 260.778C97.7654 261.436 98 262.209 98 263C98 264.061 97.5786 265.078 96.8284 265.828C96.0783 266.579 95.0609 267 94 267Z" fill="black"/>
<path d="M135 257C133.06 257.004 131.164 257.571 129.541 258.634C127.919 259.696 126.64 261.208 125.861 262.984C125.082 264.76 124.836 266.724 125.154 268.638C125.472 270.551 126.339 272.331 127.65 273.76C128.586 274.775 129.723 275.585 130.988 276.139C132.253 276.693 133.619 276.979 135 276.979C136.381 276.979 137.747 276.693 139.012 276.139C140.277 275.585 141.414 274.775 142.35 273.76C143.661 272.331 144.528 270.551 144.846 268.638C145.164 266.724 144.918 264.76 144.139 262.984C143.36 261.208 142.081 259.696 140.459 258.634C138.836 257.571 136.94 257.004 135 257ZM135 275C132.928 274.997 130.939 274.19 129.45 272.75C129.902 271.65 130.671 270.708 131.659 270.046C132.647 269.383 133.81 269.03 135 269.03C136.19 269.03 137.353 269.383 138.341 270.046C139.329 270.708 140.098 271.65 140.55 272.75C139.061 274.19 137.072 274.997 135 275ZM133 265C133 264.604 133.117 264.218 133.337 263.889C133.557 263.56 133.869 263.304 134.235 263.152C134.6 263.001 135.002 262.961 135.39 263.038C135.778 263.116 136.134 263.306 136.414 263.586C136.694 263.865 136.884 264.222 136.962 264.61C137.039 264.998 136.999 265.4 136.848 265.765C136.696 266.131 136.44 266.443 136.111 266.663C135.782 266.883 135.396 267 135 267C134.47 267 133.961 266.789 133.586 266.414C133.211 266.039 133 265.53 133 265ZM141.91 271C141.017 269.472 139.641 268.283 138 267.62C138.509 267.043 138.841 266.331 138.955 265.569C139.07 264.808 138.962 264.03 138.646 263.328C138.329 262.627 137.817 262.032 137.17 261.614C136.523 261.196 135.77 260.974 135 260.974C134.23 260.974 133.477 261.196 132.83 261.614C132.183 262.032 131.671 262.627 131.354 263.328C131.038 264.03 130.93 264.808 131.045 265.569C131.159 266.331 131.491 267.043 132 267.62C130.359 268.283 128.983 269.472 128.09 271C127.378 269.787 127.002 268.406 127 267C127 264.878 127.843 262.843 129.343 261.343C130.843 259.843 132.878 259 135 259C137.122 259 139.157 259.843 140.657 261.343C142.157 262.843 143 264.878 143 267C142.998 268.406 142.622 269.787 141.91 271Z" fill="black"/>
<path d="M44 53H62C62.2652 53 62.5196 52.8946 62.7071 52.7071C62.8946 52.5196 63 52.2652 63 52C63 51.7348 62.8946 51.4804 62.7071 51.2929C62.5196 51.1054 62.2652 51 62 51H44C43.7348 51 43.4804 51.1054 43.2929 51.2929C43.1054 51.4804 43 51.7348 43 52C43 52.2652 43.1054 52.5196 43.2929 52.7071C43.4804 52.8946 43.7348 53 44 53ZM62 61H44C43.7348 61 43.4804 61.1054 43.2929 61.2929C43.1054 61.4804 43 61.7348 43 62C43 62.2652 43.1054 62.5196 43.2929 62.7071C43.4804 62.8946 43.7348 63 44 63H62C62.2652 63 62.5196 62.8946 62.7071 62.7071C62.8946 62.5196 63 62.2652 63 62C63 61.7348 62.8946 61.4804 62.7071 61.2929C62.5196 61.1054 62.2652 61 62 61ZM62 56H44C43.7348 56 43.4804 56.1054 43.2929 56.2929C43.1054 56.4804 43 56.7348 43 57C43 57.2652 43.1054 57.5196 43.2929 57.7071C43.4804 57.8946 43.7348 58 44 58H62C62.2652 58 62.5196 57.8946 62.7071 57.7071C62.8946 57.5196 63 57.2652 63 57C63 56.7348 62.8946 56.4804 62.7071 56.2929C62.5196 56.1054 62.2652 56 62 56Z" fill="black"/>
<path d="M8.49995 12.8L14.2 18.4C14.6 18.8 15.2 18.8 15.6 18.4C16 18 16 17.4 15.6 17L10.7 12L15.6 6.99999C16 6.59999 16 5.99999 15.6 5.59999C15.4 5.39999 15.2 5.29999 14.9 5.29999C14.6 5.29999 14.4 5.39999 14.2 5.59999L8.49995 11.2C8.09995 11.7 8.09995 12.3 8.49995 12.8C8.49995 12.7 8.49995 12.7 8.49995 12.8Z" fill="black"/>
<g clip-path="url(#clip0_22_93)">
<path d="M60 311.41L58.59 310L53 315.59L47.41 310L46 311.41L51.59 317L46 322.59L47.41 324L53 318.41L58.59 324L60 322.59L54.41 317L60 311.41Z" fill="black"/>
</g>
<g clip-path="url(#clip1_22_93)">
<path d="M19 311.41L17.59 310L12 315.59L6.41 310L5 311.41L10.59 317L5 322.59L6.41 324L12 318.41L17.59 324L19 322.59L13.41 317L19 311.41Z" fill="black" fill-opacity="0.5"/>
</g>
<g clip-path="url(#clip2_22_93)">
<path d="M91 316.75C90.31 316.75 89.75 317.31 89.75 318C89.75 318.69 90.31 319.25 91 319.25C91.69 319.25 92.25 318.69 92.25 318C92.25 317.31 91.69 316.75 91 316.75ZM97 316.75C96.31 316.75 95.75 317.31 95.75 318C95.75 318.69 96.31 319.25 97 319.25C97.69 319.25 98.25 318.69 98.25 318C98.25 317.31 97.69 316.75 97 316.75ZM94 307C88.48 307 84 311.48 84 317C84 322.52 88.48 327 94 327C99.52 327 104 322.52 104 317C104 311.48 99.52 307 94 307ZM94 325C89.59 325 86 321.41 86 317C86 316.71 86.02 316.42 86.05 316.14C88.41 315.09 90.28 313.16 91.26 310.77C93.07 313.33 96.05 315 99.42 315C100.2 315 100.95 314.91 101.67 314.74C101.88 315.45 102 316.21 102 317C102 321.41 98.41 325 94 325Z" fill="black"/>
</g>
<defs>
<clipPath id="clip0_22_93">
<rect width="24" height="24" fill="white" transform="translate(41 305)"/>
</clipPath>
<clipPath id="clip1_22_93">
<rect width="24" height="24" fill="white" transform="translate(0 305)"/>
</clipPath>
<clipPath id="clip2_22_93">
<rect width="24" height="24" fill="white" transform="translate(82 305)"/>
</clipPath>
</defs>
</svg>
